<?xml version="1.0" encoding="utf-8"?>
<!DOCTYPE svg PUBLIC "-//W3C//DTD SVG 1.1//EN" "http://www.w3.org/Graphics/SVG/1.1/DTD/svg11.dtd">
<!-- exported from Silhouette Studio® Business Edition V4.3.353ssbe -->
<svg version="1.1" xmlns="http://www.w3.org/2000/svg" xmlns:xlink="http://www.w3.org/1999/xlink" width="304.8mm" height="304.8mm" viewBox="0 0 304.8 304.8">
<defs/>
<g>
<path d="M 80.61728 144.5775 L 33.20486 144.5775 L 33.20486 95.235 L 33.67372 95.35231 C 38.32314 96.60354 43.24722 99.39148 48.25682 102.2273 L 51.60057 104.1031 L 51.60057 125.9183 L 80.61728 125.9183 L 80.61728 144.5775 Z" fill="#E10000" fill-opacity="1" stroke="#FF0000" stroke-opacity="1" stroke-width="0.1" stroke-linecap="round" stroke-linejoin="round"/>
<path d="M 51.60056 96.62975 L 49.07487 95.04778 C 42.8474 91.11276 39.46277 88.88272 34.22295 87.76773 L 33.20485 87.57495 L 33.20483 60.77839 L 51.60056 60.77839 L 51.60056 96.62975 Z" fill="#E10000" fill-opacity="1" stroke="#FF0000" stroke-opacity="1" stroke-width="0.1" stroke-linecap="round" stroke-linejoin="round"/>
<path d="M 141.9507 101.2791 C 141.951 102.0327 141.8731 102.9329 141.6811 103.9889 C 140.5968 102.1512 140.3176 100.7214 140.3408 99.7421 C 140.364 98.7628 140.6895 98.23405 140.8147 98.19858 C 141.2466 98.07617 141.95 99.01828 141.9507 101.2791 Z" fill="#E10000" fill-opacity="1" stroke="#FF0000" stroke-opacity="1" stroke-width="0.1" stroke-linecap="round" stroke-linejoin="round"/>
<path d="M 152.3838 117.7703 L 152.2294 118.2096 C 150.2815 123.5544 147.3312 128.3827 143.6082 132.3595 C 136.6007 140.0691 126.8556 144.8739 116.015 144.8739 C 105.175 144.8739 95.32028 140.0691 88.31233 132.3595 C 83.56999 127.2131 80.06941 120.6405 78.34467 113.3682 L 78.28192 113.0894 L 78.38377 113.1009 C 81.93178 113.437 85.60069 113.4682 89.51794 113.2269 C 90.1028 120.8125 93.53285 131.7015 103.955 131.7057 C 105.5065 131.7063 109.5984 131.5407 115.6037 126.8976 L 116.187 126.4332 L 117.0748 126.4082 C 121.6323 126.1507 125.729 124.2426 129.0123 121.2837 L 129.0318 121.2653 L 129.0872 121.3016 C 133.7763 124.1967 139.7902 123.7506 144.9688 117.453 C 147.3221 118.0528 149.5431 118.3472 152.0016 117.857 L 152.3838 117.7703 Z" fill="#E10000" fill-opacity="1" stroke="#FF0000" stroke-opacity="1" stroke-width="0.1" stroke-linecap="round" stroke-linejoin="round"/>
<path d="M 151.4343 108.5518 C 150.883 108.7705 150.2372 108.9124 149.4702 108.942 C 153.1904 98.12886 149.9069 93.7059 148.8829 92.35294 C 144.4105 86.44411 137.2358 88.05193 133.9893 90.39835 C 133.9673 90.39763 133.882 90.38789 133.7415 90.38249 L 133.4465 90.38768 L 133.0608 89.71458 C 132.296 88.44889 131.4268 87.27573 130.4686 86.21432 C 127.6767 83.19761 124.1453 80.99773 120.152 80.08633 L 119.8827 80.03267 L 119.8314 79.50818 C 119.5084 76.90732 118.2856 74.90374 116.3622 73.40424 C 111.2888 69.44916 105.3478 71.74159 101.2462 76.33624 C 96.62828 81.50916 90.81152 92.86543 89.59445 106.6804 C 85.83238 107.4237 82.13087 107.5419 78.50516 107.1743 L 77.32074 107.0365 L 77.25485 106.2374 C 77.18114 105.195 77.1436 104.1439 77.1436 103.086 C 77.1436 91.5775 81.41435 81.18614 88.3123 73.70036 C 95.32025 65.87914 105.1749 61.18641 116.015 61.18641 C 126.8556 61.18641 136.6007 65.87914 143.6082 73.70036 C 149.9592 80.48434 154.0618 89.65465 154.7751 99.88014 L 154.8042 100.3808 L 154.7567 100.9122 C 154.651 102.3341 154.597 103.8586 154.5657 105.4661 C 153.8917 106.548 153.0883 107.8956 151.4343 108.5518 Z" fill="#E10000" fill-opacity="1" stroke="#FF0000" stroke-opacity="1" stroke-width="0.1" stroke-linecap="round" stroke-linejoin="round"/>
<path d="M 209.3592 113.1255 L 208.3871 116.6354 L 207.9562 116.5328 C 206.4383 116.1165 205.1197 115.4158 204.0504 114.3884 C 204.1838 114.384 206.3302 114.4774 209.1943 113.205 L 209.3592 113.1255 Z" fill="#E10000" fill-opacity="1" stroke="#FF0000" stroke-opacity="1" stroke-width="0.1" stroke-linecap="round" stroke-linejoin="round"/>
<path d="M 205.5373 126.9245 L 200.71 144.3534 L 174.2154 144.3534 L 169.2442 126.405 L 169.4259 126.3284 C 172.6115 124.8804 177.2354 121.2862 183.4567 112.6815 C 184.0483 112.9064 184.6174 113.1011 185.1844 113.2625 L 185.6638 113.3846 L 187.5722 120.3311 L 189.3525 113.8076 L 189.7143 113.8063 C 190.0559 113.7951 190.4098 113.7738 190.7784 113.7421 C 192.0541 122.5395 198.6279 126.4192 204.9554 126.8924 L 205.5373 126.9245 Z" fill="#E10000" fill-opacity="1" stroke="#FF0000" stroke-opacity="1" stroke-width="0.1" stroke-linecap="round" stroke-linejoin="round"/>
<path d="M 172.1073 108.3194 C 170.4909 110.1823 169.0072 111.6537 167.8037 112.7348 C 167.6046 109.8459 167.7835 106.3802 167.9132 104.8857 C 168.3666 99.66063 169.3393 99.16975 169.3481 96.64043 C 169.3623 92.59154 165.7766 89.17999 161.402 89.82079 C 160.6699 89.92802 160.0167 90.11894 159.4337 90.38771 L 159.2889 90.46146 L 151.0056 60.55473 L 171.15 60.55473 L 177.9101 85.16127 L 177.8864 85.17412 C 177.3968 85.47011 176.9506 85.80413 176.5606 86.17047 C 173.2773 89.25478 171.098 95.93945 175.128 104.5434 C 174.0946 105.9431 173.0771 107.2017 172.1073 108.3194 Z" fill="#E10000" fill-opacity="1" stroke="#FF0000" stroke-opacity="1" stroke-width="0.1" stroke-linecap="round" stroke-linejoin="round"/>
<path d="M 209.8658 101.2715 C 209.2466 104.052 206.0481 107.7261 203.185 106.6003 C 204.6778 101.8939 207.7423 101.3926 209.8658 101.2715 Z" fill="#E10000" fill-opacity="1" stroke="#FF0000" stroke-opacity="1" stroke-width="0.1" stroke-linecap="round" stroke-linejoin="round"/>
<path d="M 223.9198 60.55468 L 215.1804 92.10814 L 215.1338 92.07608 C 212.872 90.67778 209.7773 90.12114 206.1663 90.91386 C 201.7133 91.89142 195.3791 95.30687 192.0631 104.169 L 191.9748 104.1983 L 203.8849 60.55468 L 223.9198 60.55468 Z" fill="#E10000" fill-opacity="1" stroke="#FF0000" stroke-opacity="1" stroke-width="0.1" stroke-linecap="round" stroke-linejoin="round"/>
<path d="M 246.4959 125.6945 L 279.1257 125.6945 L 279.1257 144.3538 C 262.2631 144.3538 245.1819 144.3538 228.2098 144.3538 L 228.2098 119.668 L 229.8526 118.8769 C 235.0641 116.329 240.7107 113.3497 246.5791 110.1994 C 252.1019 107.2347 252.5508 106.9858 253.8429 106.2928 C 262.9695 101.3978 268.3395 98.64108 272.7405 96.72093 L 272.9941 96.6144 L 272.9941 111.8397 L 246.496 111.8397 L 246.4959 125.6945 Z" fill="#E10000" fill-opacity="1" stroke="#FF0000" stroke-opacity="1" stroke-width="0.1" stroke-linecap="round" stroke-linejoin="round"/>
<path d="M 245.5882 103.1524 C 241.9965 105.3125 238.4233 107.437 234.8634 109.3689 C 233.3238 110.2045 231.7767 110.9952 230.237 111.7285 L 228.2098 112.6578 L 228.2098 60.6663 L 279.1258 60.6663 L 279.1258 79.32555 L 246.496 79.32555 L 246.496 93.06874 L 263.1645 93.06874 L 261.8948 93.72011 C 256.4052 96.59181 250.9758 99.91226 245.5882 103.1524 Z" fill="#E10000" fill-opacity="1" stroke="#FF0000" stroke-opacity="1" stroke-width="0.1" stroke-linecap="round" stroke-linejoin="round"/>
</g>
<path d="M 192.8469 111.1806 L 191.6879 111.4154 C 190.7728 111.5674 189.9686 111.638 189.4507 111.638 C 186.8762 111.638 184.6156 111.0105 182.7317 109.8805 C 177.3947 117.8521 170.3622 125.0707 165.5903 125.0707 C 159.9371 125.0707 157.8739 118.87 157.1364 113.1177 L 157.1227 112.9928 L 157.0457 113.0608 C 154.9602 114.8074 152.3926 115.905 149.5875 115.905 C 147.7045 115.905 145.8842 115.5283 144.1267 114.9007 C 141.8043 118.353 138.6656 120.8011 134.8367 120.8011 C 130.6783 120.8011 127.4516 117.9325 125.6163 114.31 L 125.1879 113.377 L 124.9224 113.7543 C 120.2781 120.1953 111.841 129.5191 103.9557 129.5191 C 94.54053 129.5191 91.65308 118.4088 91.59035 110.8139 C 88.89133 111.1905 86.38049 111.1905 84.99961 111.1905 C 57.44379 111.4417 45.95714 93.92581 30.13939 92.54469 C 29.7 92.48196 29.26065 92.48196 28.88402 92.48196 C 23.92536 92.48196 18.52703 94.86756 18.52703 100.5807 C 18.52703 102.5269 19.65699 105.101 21.47727 106.2309 C 22.60695 106.9842 22.60692 107.2354 21.53996 107.612 C 20.34728 108.0514 19.28032 108.2398 18.2761 108.2398 C 8.986121 108.2398 10.80639 89.28035 28.13073 89.28035 C 30.07669 89.28035 32.14788 89.53152 34.40775 90.03363 C 46.08261 92.60767 59.07585 109.4955 83.05364 109.4955 C 86.31776 109.4955 89.20499 109.1189 91.65307 108.4283 C 92.21791 98.06989 96.61172 84.25846 103.5163 77.10168 C 105.0857 75.46962 107.8474 73.58615 110.2328 73.58615 C 114.3754 73.58615 117.765 76.34816 117.765 81.37004 C 117.765 89.02868 106.0272 106.2297 98.93434 108.6151 C 98.36926 112.6957 98.05558 123.8699 104.5206 123.8699 C 110.6092 123.8699 120.1501 113.1985 123.2885 107.6745 C 123.4141 107.4235 123.5554 107.1096 123.7124 106.8114 L 123.9487 106.4045 L 124.0173 105.5596 C 124.4936 101.1234 126.6219 96.33888 130.1918 93.81256 C 131.1962 93.12225 132.2632 92.55739 133.5186 92.55739 C 133.8953 92.55739 134.3346 92.62012 134.7113 92.68286 C 136.0922 91.23924 138.2263 90.48595 141.0508 90.48595 C 145.2564 90.48595 149.0226 94.31445 149.0226 99.46107 C 149.0226 102.5992 148.1439 106.8044 146.5118 110.5701 C 147.516 110.9468 148.5832 111.135 149.5875 111.135 C 151.9726 111.135 154.044 109.8798 155.4879 108.0595 C 155.8645 107.6359 156.0998 107.0711 156.4323 106.6034 L 156.7412 106.2508 L 156.7399 106.1761 C 156.7399 103.5393 157.1165 96.31884 158.3719 94.24692 C 159.2507 92.80283 160.7571 91.92381 162.4519 91.92381 C 165.0254 91.92381 167.1596 94.05846 167.1596 96.63274 C 167.1596 98.07684 166.4063 99.9603 166.1554 101.4044 C 165.653 104.2926 165.5275 107.3062 165.5275 110.2572 C 165.5275 112.3913 165.653 114.5882 166.3436 116.5967 C 169.9213 114.3368 174.2525 109.5659 177.7048 104.7322 C 176.1982 102.1579 175.1312 98.83038 175.1312 95.87946 C 175.1312 90.98209 177.3925 85.8965 183.0458 85.8965 C 187.1272 85.8965 190.0156 88.09389 190.0156 92.36343 C 190.0156 95.691 188.1326 100.6511 185.2451 105.7367 C 186.4378 106.4272 187.8187 106.8669 189.4507 106.8669 C 190.2668 106.8669 191.0828 106.7414 191.8359 106.5529 C 192.1184 106.4902 192.4479 106.3724 192.798 106.2311 L 193.8308 105.7906 L 193.86 105.6894 C 196.6087 96.87679 203.7488 92.74391 209.3508 92.74391 C 213.6192 92.74391 217.0087 95.12927 217.0087 99.58582 C 217.0087 105.4232 210.104 112.2024 204.0782 112.2024 C 203.2621 112.2024 201.6931 111.8885 200.5631 111.3237 C 201.0025 117.2241 206.589 119.107 212.1755 119.107 C 234.9606 119.107 262.6419 88.1619 287.1845 88.1619 C 297.4785 88.1619 301.0563 98.5816 296.3488 105.549 C 295.5328 106.7416 294.8422 107.3065 294.3401 107.3065 C 293.5868 107.3065 293.1474 105.9256 293.0847 103.603 C 292.9592 98.20494 290.0718 91.67696 282.9789 91.67696 C 280.0915 91.67696 276.1998 92.93237 273.5635 93.99933 C 256.0509 101.1551 219.2683 125.0702 206.1496 124.7563 C 197.8562 124.5916 193.2152 118.9 192.8574 112.5178 L 192.8469 111.1806 Z M 212.0807 100.9904 C 212.095 100.4617 212.0264 99.9468 211.8616 99.46034 C 211.7988 99.33487 211.0455 99.08371 209.9158 99.08371 C 207.0284 99.08371 201.7558 100.5273 200.6886 107.8713 C 201.5673 107.9968 202.5088 109.064 204.0782 109.064 C 207.813 109.064 211.9803 104.6908 212.0807 100.9904 Z M 132.5977 108.8869 C 132.5805 112.5345 135.3388 113.5826 135.3388 113.5826 C 137.0336 113.5826 138.1008 113.4571 139.4817 112.3274 C 136.8454 110.2562 134.7113 107.432 133.5186 104.231 C 133.0165 105.6119 132.7653 107.118 132.6398 108.1223 C 132.6124 108.389 132.5989 108.6437 132.5977 108.8869 Z M 140.0362 105.4764 C 140.7331 106.5061 141.5923 107.4475 142.5574 108.2477 C 145.0054 103.1013 144.817 96.00923 140.7999 96.00923 C 138.8541 96.00923 138.1636 98.14317 138.1636 99.83771 C 138.1636 101.7991 138.8746 103.7603 140.0362 105.4764 Z M 180.4067 96.19336 C 180.4067 97.2608 180.5951 98.76764 180.9722 99.77211 C 181.7263 98.39075 182.4175 97.1351 182.9201 95.94218 C 183.4229 94.812 183.9255 93.30518 183.9255 92.04953 C 183.9255 91.67264 183.4229 91.60991 183.0458 91.60991 C 180.7208 91.60991 180.4067 94.37263 180.4067 96.19336 Z M 114.6266 81.37004 C 114.6266 80.30283 114.6266 78.79601 114.1242 78.79601 C 114.1242 78.79601 114.0615 78.85873 113.9988 78.85873 C 107.9102 81.49551 100.5034 99.07389 99.24802 104.9125 C 104.8345 101.334 114.6266 87.39687 114.6266 81.37004 Z" fill="#EDC1DF" fill-opacity="1" stroke="#EDC1DF" stroke-opacity="1" stroke-width="0.1" stroke-linecap="round" stroke-linejoin="round"/>
</svg>