
        <svg xmlns="http://www.w3.org/2000/svg" xmlns:xlink="http://www.w3.org/1999/xlink" version="1.1" width="3192.9260450160773" 
        height="723.6335291340374" viewBox="0 0 3192.9260450160773 723.6335291340374">
			<rect fill="#ffffff" width="3192.9260450160773" height="723.6335291340374"/>
			<g transform="scale(9.646302250803858) translate(10, 10)">
				<defs id="SvgjsDefs4153"></defs><g id="SvgjsG4154" featureKey="symbolFeature-0" transform="matrix(0.429586768487261,0,0,0.429586768487261,0.012890356143649273,0.0037933134564302807)" fill="#169dfa"><title xmlns="http://www.w3.org/2000/svg">Beauty&amp;amp; cosmetics 2 solid</title><path xmlns="http://www.w3.org/2000/svg" d="M126,83.24a7.45,7.45,0,0,1-4.38-1.61,14.08,14.08,0,0,0-1.6-5.56,2,2,0,0,0-3.44,2c.44.76,4.09,7.62-4.66,13.08-5.95,3.71-23.83,3-38.19,2.37-8.39-.35-16.32-.68-21.76-.22-13.65,1.17-37.19,1.41-50,1.44a2,2,0,1,0,0,4H2c12.88,0,36.54-.28,50.33-1.46,5.18-.45,13-.12,21.25.23,16.46.69,33.49,1.39,40.48-3,4.27-2.67,6.3-5.7,7.13-8.54A10.93,10.93,0,0,0,126,87.23h0a2,2,0,0,0,0-4Z"></path><path xmlns="http://www.w3.org/2000/svg" d="M41,67.91a6.26,6.26,0,0,0,5.16,2.75A6.5,6.5,0,0,0,49,70c2-1,5.7-4,9.37-7.17l1.08-.91a33.6,33.6,0,0,0,7-6C75.19,54.18,85.62,53.3,95,56a34.17,34.17,0,0,1,6,2.3,31,31,0,0,1,7.15,4.85c.29.27.65.64,1,1C111,66,113.38,68.51,116,68.51a3.8,3.8,0,0,0,.67-.06c1.75-.29,2.88-1.76,4.08-3.3,1.71-2.21,3-3.64,4.94-3.32a2,2,0,0,0,.64-3.94c-4.45-.73-7,2.61-8.75,4.83A11.66,11.66,0,0,1,116,64.52c-.81.1-3.16-2.3-3.92-3.09-.47-.48-.89-.91-1.24-1.23a35.87,35.87,0,0,0-13.65-7.65,47.12,47.12,0,0,0-8.11-1.72A72.18,72.18,0,0,0,70,51.28a29.4,29.4,0,0,0,4.48-11,2,2,0,0,0-3.94-.69c-2.1,12-13.08,18.83-13.19,18.89a12.65,12.65,0,0,0-1.57,1.27c-2,1.71-6.69,5.72-8.53,6.61a2.36,2.36,0,0,1-2.65-3.83C51.52,56,56.08,50.76,58.15,46.9a47.4,47.4,0,0,0,3.38-8.19c1.23-3.71,2-6.17,5.83-9.39a2,2,0,1,0-2.59-3c-4.65,4-5.76,7.3-7,11.18A44,44,0,0,1,54.63,45c-1.53,2.86-4.86,6.86-9.7,11.67a18.12,18.12,0,0,1-10.7-2.56,8.66,8.66,0,0,0-2.41-4.07C26.15,44.5,12.46,43.55,2,43.74a2,2,0,0,0-2,2c0,1.1.18,40,0,41.05a2,2,0,0,0,1.69,2.26,27,27,0,0,0,3.83.27A31.69,31.69,0,0,0,14,88.14c10.54-2.93,33.21-5.72,40.19-3.5,15.07,4.78,28.52.7,35.52-2.35a5.94,5.94,0,0,1-1.86-3.57c-6.5,2.77-18.89,6.43-32.45,2.12-5.17-1.64-16.67-1-27,.48-.93-13.05,3.45-20.74,5-23a22.46,22.46,0,0,0,7.61,2.25A6.2,6.2,0,0,0,41,67.91Z"></path><path xmlns="http://www.w3.org/2000/svg" d="M126,101.88H2a2,2,0,0,0-2,2v13.18a2,2,0,0,0,2,2H6.5v7a2,2,0,0,0,4,0v-7h106v7a2,2,0,0,0,4,0v-7H126a2,2,0,0,0,2-2V103.87A2,2,0,0,0,126,101.88Z"></path><path xmlns="http://www.w3.org/2000/svg" d="M47.5,11.43c1.57,1.67,3.57,1.48,5,1.33,1.95-.19,2.83-.28,3.81,2.7a2,2,0,0,0,3.8-1.24c-2-6-5.75-5.65-8-5.42-1.06.11-1.54.12-1.72-.08s.12-1.26.27-1.77a4,4,0,0,0,0-3.29A2,2,0,0,0,49.37,0a3.43,3.43,0,0,0-2.73,2.06A3.45,3.45,0,0,0,47,5.3c0,.16-.1.34-.14.5C46.47,7.11,45.73,9.55,47.5,11.43Z"></path><path xmlns="http://www.w3.org/2000/svg" d="M37,51.13a13.55,13.55,0,0,0,4.7,1.47c1-.65,2-1.26,3-1.85,3.06-1.79,6-3.48,7.49-6.33a30.46,30.46,0,0,0,2.9-8.94,2,2,0,0,0-3.93-.75,26.55,26.55,0,0,1-2.5,7.81c-1,1.86-3.31,3.21-6,4.77A42.18,42.18,0,0,0,37,51.13Z"></path><path xmlns="http://www.w3.org/2000/svg" d="M75.74,19.26c6.47,2.65,7.43,10.06,8.36,17.23.48,3.65.95,7.18,2.11,10.07q2.41.16,4.82.53c-1.83-2.41-2.38-6.66-3-11.12-1-7.9-2.19-16.86-10.81-20.4C68.33,11.9,71.35,3.8,71.72,2.88A2,2,0,0,0,68,1.35c-.09.23-2.25,5.5-.1,10.68C69.26,15.24,71.89,17.67,75.74,19.26Z"></path></g><g id="SvgjsG4155" featureKey="textGroupContainer" transform="matrix(1,0,0,1,310,4)" fill="#d72323"><rect xmlns="http://www.w3.org/2000/svg" y="0" height="1" width="1" opacity="0"></rect><rect xmlns="http://www.w3.org/2000/svg" y="0" x="-235" width="3" height="48"></rect></g><g id="SvgjsG4156" featureKey="vMvB0T-0" transform="matrix(1.6863405540252452,0,0,1.6863405540252452,92.66273100467413,5.6121424445196375)" fill="#d72323"><path d="M1.3 16.96 q0.98 0.6 1.9 0.6 q0.96 0 1.33 -0.61 t0.37 -1.89 l0 -8.72 q0.6 -0.12 1.58 -0.12 t1.62 0.12 l0 8.42 q0 1.28 -0.22 2.29 t-0.76 1.71 t-1.43 1.07 t-2.23 0.37 q-1.86 0 -3.26 -0.88 q0.22 -1.38 1.1 -2.36 z M14.08 15.96 l-0.02 1.44 l0 0.02 q0.92 -0.04 1.48 -0.04 l4.64 0 q0 0.74 -0.06 1.14 q-0.24 1.54 -2.04 1.54 l-5.32 0 q-0.86 0 -1.35 -0.5 t-0.49 -1.36 l0 -11.72 l0.14 -0.14 l8.62 0 q0.12 0.58 0.12 1.26 t-0.28 1.42 l-5.46 0 l0.02 1.44 l0 1.4 q0.52 -0.02 1.36 -0.02 l3.06 0 q0.18 0.56 0.18 1.28 t-0.18 1.32 l-4.42 0 l0 1.52 z M27.46 15.86 l-5.64 0 q-0.12 -0.5 -0.12 -1.25 t0.12 -1.25 l5.64 0 q0.12 0.5 0.12 1.25 t-0.12 1.25 z M34.980000000000004 17.3 l3.46 0 q0 0.8 -0.1 1.37 t-0.64 0.98 t-1.42 0.41 l-4.52 0 q-0.86 0 -1.36 -0.5 t-0.5 -1.36 l0 -11.86 l0.14 -0.14 l1.18 0 q1.88 0 1.88 2.04 l0 9.14 q0.88 -0.08 1.88 -0.08 z M40.400000000000006 20 l0 -13.66 q0.62 -0.12 1.6 -0.12 t1.62 0.12 l0 13.66 q-0.64 0.12 -1.62 0.12 t-1.6 -0.12 z M51.52000000000001 17.32 l2.62 -10.98 q0.48 -0.12 1.24 -0.12 q1.04 0 1.64 0.22 l0.12 0.16 l-3.74 13.4 q-1.14 0.12 -2.29 0.12 t-1.66 -0.29 t-0.77 -1.15 l-3.32 -12.06 q1.08 -0.46 1.78 -0.46 q0.84 0 1.24 0.38 t0.62 1.2 l1.54 5.7 q0.36 1.34 0.76 3.64 q0.04 0.24 0.22 0.24 z M61.96000000000001 15.96 l-0.02 1.44 l0 0.02 q0.92 -0.04 1.48 -0.04 l4.64 0 q0 0.74 -0.06 1.14 q-0.24 1.54 -2.04 1.54 l-5.32 0 q-0.86 0 -1.35 -0.5 t-0.49 -1.36 l0 -11.72 l0.14 -0.14 l8.62 0 q0.12 0.58 0.12 1.26 t-0.28 1.42 l-5.46 0 l0.02 1.44 l0 1.4 q0.52 -0.02 1.36 -0.02 l3.06 0 q0.18 0.56 0.18 1.28 t-0.18 1.32 l-4.42 0 l0 1.52 z M75.34000000000002 15.86 l-5.64 0 q-0.12 -0.5 -0.12 -1.25 t0.12 -1.25 l5.64 0 q0.12 0.5 0.12 1.25 t-0.12 1.25 z M77.94000000000001 6.300000000000001 q1.62 -0.04 2.77 -0.06 t1.85 -0.02 q2.18 0 3.43 0.91 t1.25 2.73 q0 0.88 -0.5 1.64 t-1.28 1.1 q0.5 0.16 0.95 0.51 t0.77 0.82 t0.51 1.02 t0.19 1.13 q0 2.06 -1.31 3.05 t-3.71 0.99 q-0.74 0 -1.96 -0.02 t-2.96 -0.06 l-0.14 -0.14 l0 -13.46 z M82.62000000000002 13.98 l-1.66 0 l0 3.9 q0.52 -0.02 1.17 0 t1.21 -0.1 t0.94 -0.58 t0.38 -1.28 q0 -0.78 -0.49 -1.36 t-1.55 -0.58 z M80.96000000000001 8.48 l0 3.22 l1.42 0 q0.96 0 1.35 -0.47 t0.39 -1.15 t-0.4 -1.13 t-1.34 -0.45 l-0.81 0 t-0.61 -0.02 z M90.14000000000001 20 l0 -13.66 q0.62 -0.12 1.6 -0.12 t1.62 0.12 l0 13.66 q-0.64 0.12 -1.62 0.12 t-1.6 -0.12 z M99.58000000000001 15.96 l-0.02 1.44 l0 0.02 q0.92 -0.04 1.48 -0.04 l4.64 0 q0 0.74 -0.06 1.14 q-0.24 1.54 -2.04 1.54 l-5.32 0 q-0.86 0 -1.35 -0.5 t-0.49 -1.36 l0 -11.72 l0.14 -0.14 l8.62 0 q0.12 0.58 0.12 1.26 t-0.28 1.42 l-5.46 0 l0.02 1.44 l0 1.4 q0.52 -0.02 1.36 -0.02 l3.06 0 q0.18 0.56 0.18 1.28 t-0.18 1.32 l-4.42 0 l0 1.52 z M118.66000000000003 6.199999999999999 l0.14 0.14 l0 13.6 q-0.8 0.18 -1.89 0.18 t-1.93 -0.12 l-3.14 -7.16 q-0.56 -1.22 -1.14 -2.82 l-0.06 0.02 q0.24 2.92 0.24 5.98 l0 3.98 q-0.62 0.12 -1.5 0.12 t-1.48 -0.12 l0 -13.6 q0.76 -0.18 1.83 -0.18 t1.91 0.12 l3.1 7.14 q0.84 1.98 1.24 3.04 l0.08 -0.04 q-0.24 -2.78 -0.24 -5.9 l0 -2.44 q0 -1.04 0.42 -1.49 t1.36 -0.45 l1.06 0 z"></path></g>
			</g>
		</svg>
	